<svg xmlns="http://www.w3.org/2000/svg" viewBox="0 0 900 675" role="img" aria-labelledby="title desc">
  <title id="title">On-demand agent-native interaction surface thumbnail</title>
  <desc id="desc">An original diagram showing user request to agent to generated UI.</desc>
  <defs>
    <linearGradient id="bg" x1="0" x2="1" y1="0" y2="1">
      <stop offset="0" stop-color="#fbfaf7" />
      <stop offset="0.58" stop-color="#f4eee7" />
      <stop offset="1" stop-color="#eef1f2" />
    </linearGradient>
    <linearGradient id="surface" x1="0" x2="1" y1="0" y2="1">
      <stop offset="0" stop-color="#ffffff" />
      <stop offset="1" stop-color="#f2ede6" />
    </linearGradient>
    <g id="node-arrow">
      <path d="M0,-7 H34 V-18 L58,0 L34,18 V7 H0 Z" fill="#9a6b45" />
    </g>
  </defs>

  <rect width="900" height="675" fill="url(#bg)" />

  <text x="78" y="116" fill="#9b9087" font-family="Arial, sans-serif" font-size="38">agent-native app</text>
  <text x="78" y="184" fill="#252525" font-family="Arial, sans-serif" font-size="72" font-weight="700">generated UI</text>
  <text x="78" y="240" fill="#252525" font-family="Arial, sans-serif" font-size="50" font-weight="700">when the task needs it</text>

  <g transform="translate(86 318)">
    <rect width="208" height="150" fill="#ffffff" stroke="#d9cabc" stroke-width="3" />
    <text x="26" y="66" fill="#252525" font-family="Arial, sans-serif" font-size="48" font-weight="700">User</text>
    <text x="26" y="112" fill="#252525" font-family="Arial, sans-serif" font-size="38" font-weight="700">Request</text>
  </g>

  <g transform="translate(356 318)">
    <rect width="190" height="150" fill="#efe8e1" stroke="#cfb9a7" stroke-width="3" />
    <text x="26" y="60" fill="#252525" font-family="Arial, sans-serif" font-size="52" font-weight="700">Agent</text>
    <circle cx="96" cy="106" r="26" fill="#4fd8c6" opacity="0.95" />
    <path d="M84 106 L94 116 L111 94" fill="none" stroke="#252525" stroke-width="7" stroke-linecap="round" stroke-linejoin="round" />
  </g>

  <g transform="translate(638 318)">
    <rect width="190" height="150" fill="url(#surface)" stroke="#d9cabc" stroke-width="3" />
    <text x="46" y="60" fill="#252525" font-family="Arial, sans-serif" font-size="62" font-weight="700">UI</text>
    <rect x="34" y="78" width="122" height="24" fill="#f8f6f3" stroke="#d9cabc" stroke-width="3" />
    <rect x="34" y="118" width="54" height="24" fill="#f1e7dc" stroke="#cfb9a7" stroke-width="3" />
    <rect x="104" y="118" width="54" height="24" fill="#ffffff" stroke="#d9cabc" stroke-width="3" />
  </g>

  <use href="#node-arrow" x="298" y="393" />
  <use href="#node-arrow" x="562" y="393" />
  <path d="M724 542 C586 614, 318 606, 184 488" fill="none" stroke="#879799" stroke-width="5" opacity="0.65" />
  <rect x="268" y="564" width="364" height="44" fill="#f6f2ec" opacity="0.9" />
  <text x="286" y="596" fill="#8f867d" font-family="Arial, sans-serif" font-size="34">interaction loop, not just chat</text>
</svg>
