<svg xmlns="http://www.w3.org/2000/svg" viewBox="0 0 900 675" role="img" aria-labelledby="title desc">
  <title id="title">On-demand agent-native interaction surface thumbnail</title>
  <desc id="desc">An original diagram showing user request to agent to generated UI.</desc>
  <defs>
    <linearGradient id="bg" x1="0" x2="1" y1="0" y2="1">
      <stop offset="0" stop-color="#fbfaf7" />
      <stop offset="0.58" stop-color="#f4eee7" />
      <stop offset="1" stop-color="#eef1f2" />
    </linearGradient>
    <linearGradient id="surface" x1="0" x2="1" y1="0" y2="1">
      <stop offset="0" stop-color="#ffffff" />
      <stop offset="1" stop-color="#f2ede6" />
    </linearGradient>
    <marker id="arrow" markerWidth="12" markerHeight="12" refX="9" refY="4" orient="auto" markerUnits="strokeWidth">
      <path d="M0,0 L9,4 L0,8 Z" fill="#9a6b45" />
    </marker>
  </defs>

  <rect width="900" height="675" fill="url(#bg)" />

  <text x="78" y="116" fill="#9b9087" font-family="Arial, sans-serif" font-size="38">agent-native app</text>
  <text x="78" y="184" fill="#252525" font-family="Arial, sans-serif" font-size="72" font-weight="700">generated UI</text>
  <text x="78" y="240" fill="#252525" font-family="Arial, sans-serif" font-size="50" font-weight="700">when the task needs it</text>

  <g transform="translate(86 318)">
    <rect width="208" height="150" fill="#ffffff" stroke="#d9cabc" stroke-width="3" />
    <text x="26" y="66" fill="#252525" font-family="Arial, sans-serif" font-size="48" font-weight="700">User</text>
    <text x="26" y="112" fill="#252525" font-family="Arial, sans-serif" font-size="38" font-weight="700">Request</text>
  </g>

  <g transform="translate(356 298)">
    <rect width="190" height="190" fill="#efe8e1" stroke="#cfb9a7" stroke-width="3" />
    <text x="26" y="80" fill="#252525" font-family="Arial, sans-serif" font-size="52" font-weight="700">Agent</text>
    <circle cx="96" cy="122" r="31" fill="#4fd8c6" opacity="0.95" />
    <path d="M82 122 L93 134 L114 107" fill="none" stroke="#252525" stroke-width="8" stroke-linecap="round" stroke-linejoin="round" />
  </g>

  <g transform="translate(638 286)">
    <rect width="190" height="214" fill="url(#surface)" stroke="#d9cabc" stroke-width="3" />
    <text x="46" y="72" fill="#252525" font-family="Arial, sans-serif" font-size="62" font-weight="700">UI</text>
    <rect x="34" y="96" width="122" height="28" fill="#f8f6f3" stroke="#d9cabc" stroke-width="3" />
    <rect x="34" y="146" width="54" height="42" fill="#f1e7dc" stroke="#cfb9a7" stroke-width="3" />
    <rect x="104" y="146" width="54" height="42" fill="#ffffff" stroke="#d9cabc" stroke-width="3" />
  </g>

  <path d="M308 393 C326 393, 338 393, 346 393" fill="none" stroke="#9a6b45" stroke-width="6" marker-end="url(#arrow)" />
  <path d="M562 393 C590 393, 606 393, 628 393" fill="none" stroke="#9a6b45" stroke-width="6" marker-end="url(#arrow)" />
  <path d="M724 542 C586 614, 318 606, 184 488" fill="none" stroke="#879799" stroke-width="5" opacity="0.65" />
  <rect x="268" y="564" width="364" height="44" fill="#f6f2ec" opacity="0.9" />
  <text x="286" y="596" fill="#8f867d" font-family="Arial, sans-serif" font-size="34">interaction loop, not just chat</text>
</svg>
